<svg width="1440" height="211" viewBox="0 0 1440 211" fill="none" xmlns="http://www.w3.org/2000/svg">
<path d="M0 160.402L8.3 147.753C16.6 135.103 33 109.805 50 113.995C66.2 118.501 83 151.706 99 160.402C115.9 169.099 132 151.706 149 143.563C165.5 135.103 182 135.103 199 118.264C215.2 101.108 232 67.9032 248 67.6661C264.8 67.9032 281 101.108 298 126.644C314.5 151.706 331 169.099 348 156.212C364.1 143.8 381 101.108 397 101.345C413.8 101.108 430 143.8 447 151.943C463.4 160.402 480 135.103 497 118.264C513.1 101.108 530 93.2021 546 80.3155C562.8 67.9032 579 50.5103 596 42.3672C612.4 33.9079 629 33.9079 646 42.3672C662.1 50.5103 679 67.9032 695 84.5056C711.7 101.108 728 118.501 745 101.345C761.4 84.5056 778 33.9079 794 12.7991C811 -7.99337 828 -0.087475 844 12.7991C860.7 25.2114 877 42.6044 894 71.8562C910.3 101.108 927 143.8 943 143.563C960 143.8 977 101.108 993 88.6958C1009.7 75.8091 1026 93.2021 1043 84.5056C1059.3 75.8091 1076 42.6044 1092 25.4486C1109 8.60901 1126 8.60901 1142 33.9079C1158.6 59.2068 1175 109.805 1192 122.454C1208.3 135.103 1225 109.805 1241 101.345C1257.9 93.2021 1274 101.108 1291 88.6958C1307.6 75.8091 1324 42.6044 1341 38.098C1357.2 33.9079 1374 59.2068 1390 80.3155C1406.9 101.108 1423 118.501 1432 126.644L1440 135.103V211H1431.7C1423.4 211 1407 211 1390 211C1373.8 211 1357 211 1341 211C1324.1 211 1308 211 1291 211C1274.5 211 1258 211 1241 211C1224.8 211 1208 211 1192 211C1175.2 211 1159 211 1142 211C1125.5 211 1109 211 1092 211C1075.9 211 1059 211 1043 211C1026.2 211 1010 211 993 211C976.6 211 960 211 943 211C926.9 211 910 211 894 211C877.2 211 861 211 844 211C827.6 211 811 211 794 211C777.9 211 761 211 745 211C728.3 211 712 211 695 211C678.6 211 662 211 646 211C629 211 612 211 596 211C579.3 211 563 211 546 211C529.7 211 513 211 497 211C480 211 463 211 447 211C430.3 211 414 211 397 211C380.7 211 364 211 348 211C331 211 314 211 298 211C281.4 211 265 211 248 211C231.7 211 215 211 199 211C182.1 211 166 211 149 211C132.4 211 116 211 99 211C82.8 211 66 211 50 211C33.1 211 17 211 8 211H0V160.402Z" fill="#FFE14D"/>
</svg>
