<svg width="1440" height="289" viewBox="0 0 1440 289" fill="none" xmlns="http://www.w3.org/2000/svg">
<path d="M0 149.633L10.9 126.442C21.8 102.814 44 57.0847 65 68.2994C87.3 79.9496 109 149.633 131 167.054C152.7 184.475 175 149.633 196 143.862C218.2 137.656 240 161.61 262 137.983C283.6 114.791 305 45.1078 327 16.0368C349.1 -12.5988 371 -1.71075 393 39.3372C414.5 79.9496 436 149.633 458 155.404C480 161.61 502 102.814 524 79.9496C545.5 57.0847 567 67.9727 589 62.5287C610.9 57.0847 633 33.131 655 45.1078C676.4 57.0847 698 102.814 720 132.212C741.8 161.61 764 172.498 785 184.475C807.3 196.452 829 207.34 851 184.475C872.7 161.61 895 102.814 916 114.791C938.2 126.768 960 207.34 982 225.087C1003.6 242.181 1025 196.452 1047 149.633C1069.1 102.814 1091 57.0847 1113 74.1789C1134.5 91.9264 1156 172.498 1178 172.825C1200 172.498 1222 91.9264 1244 68.2994C1265.5 45.1078 1287 79.9496 1309 120.562C1330.9 161.61 1353 207.34 1375 196.125C1396.4 184.475 1418 114.791 1429 79.9496L1440 45.1078V289H1429.1C1418.2 289 1396 289 1375 289C1352.7 289 1331 289 1309 289C1287.3 289 1265 289 1244 289C1221.8 289 1200 289 1178 289C1156.4 289 1135 289 1113 289C1090.9 289 1069 289 1047 289C1025.5 289 1004 289 982 289C960 289 938 289 916 289C894.5 289 873 289 851 289C829.1 289 807 289 785 289C763.6 289 742 289 720 289C698.2 289 676 289 655 289C632.7 289 611 289 589 289C567.3 289 545 289 524 289C501.8 289 480 289 458 289C436.4 289 415 289 393 289C370.9 289 349 289 327 289C305.5 289 284 289 262 289C240 289 218 289 196 289C174.5 289 153 289 131 289C109.1 289 87 289 65 289C43.6 289 22 289 11 289H0V149.633Z" fill="white"/>
</svg>
