<svg width="325" height="346" viewBox="0 0 325 346" fill="none" xmlns="http://www.w3.org/2000/svg">
<path d="M241.719 191.736C236.497 210.887 291.682 220.413 281.098 237.206C269.105 256.233 233.634 206.051 215.37 219.176C206.94 225.235 213.931 240.209 213.585 250.585C212.623 279.436 240.815 331.412 212.723 338.056C181.448 345.453 200.379 251.187 168.242 251.419C133.799 251.668 156.075 349.342 121.913 344.948C99.1161 342.017 110.486 299.57 107.796 276.744C106.136 262.665 117.946 242.148 106.484 233.805C81.2868 215.465 37.5365 282.383 15.7712 260.077C3.31161 247.308 23.0047 223.893 32.0799 208.532C40.5362 194.22 68.6116 188.575 66.8164 172.048C63.9441 145.605 0.223761 153.566 0.000484735 126.968C-0.137337 110.55 29.1514 110.052 40.771 98.4529C49.8035 89.4361 55.3458 77.0174 62.9921 66.7986C71.1757 55.8619 76.6253 40.6483 88.7844 34.4242C101.148 28.0957 118.02 27.0146 130.823 32.3987C147.959 39.6054 149.719 76.0974 168.242 74.5097C196.917 72.0518 186.243 -6.29622 214.233 0.406631C240.036 6.58592 197.858 67.6946 221.087 80.5166C247.101 94.8757 272.628 30.6672 301.09 39.1999C316.462 43.8082 326.122 65.6033 324.895 81.604C322.929 107.248 276.667 117.234 276.827 142.953C276.904 155.271 303.671 160.225 300.213 172.048C294.496 191.596 247.077 172.086 241.719 191.736Z" fill="#FF4DC4"/>
</svg>
