<svg width="275" height="358" viewBox="0 0 275 358" fill="none" xmlns="http://www.w3.org/2000/svg">
<path d="M257.394 229.667C260.319 240.479 249.518 251.104 247.403 262.103C244.441 277.508 248.755 294.684 243.553 309.483C238.177 324.774 232.148 348.513 216.023 350.16C190.481 352.77 178.514 313.958 160.286 295.876C152.016 287.673 147.069 269.903 135.454 270.789C100.609 273.445 105.174 370.638 73.2271 356.474C42.562 342.879 115.974 282.39 94.0691 256.986C84.236 245.582 63.3699 262.149 48.5174 259.669C31.5079 256.829 3.03856 256.821 0.178268 239.815C-3.36548 218.745 47.0801 218.28 48.7259 196.978C49.9759 180.799 14.7468 175.193 17.2884 159.165C19.4455 145.563 40.2075 142.935 52.5884 136.903C62.5494 132.05 77.3363 134.278 84.1974 125.577C94.8269 112.098 76.7458 84.9624 89.843 73.8654C99.6368 65.5674 117.334 82.0548 128.68 76.0517C154.554 62.3625 145.155 -1.56483 174.384 0.0293006C198.742 1.35783 184.286 54.8572 205.356 67.1522C221.739 76.7122 247.284 51.3109 262.643 62.4422C276.841 72.7324 274.812 96.5908 274.988 114.125C275.151 130.359 273.017 148.36 264.523 162.196C255.019 177.677 222.401 178.821 221.859 196.978C221.383 212.905 253.234 214.286 257.394 229.667Z" fill="#FFE14C"/>
</svg>
