<svg width="356" height="378" viewBox="0 0 356 378" fill="none" xmlns="http://www.w3.org/2000/svg">
<path d="M264.775 210.025C259.055 231.002 319.504 241.437 307.91 259.831C294.774 280.674 255.919 225.705 235.913 240.083C226.679 246.719 234.336 263.121 233.958 274.487C232.904 306.089 263.785 363.023 233.014 370.301C198.755 378.403 219.492 275.147 184.289 275.401C146.561 275.673 170.963 382.664 133.542 377.851C108.57 374.64 121.025 328.145 118.078 303.141C116.26 287.719 129.196 265.245 116.641 256.107C89.0403 236.017 41.1169 309.318 17.2756 284.884C3.62749 270.897 25.199 245.249 35.1399 228.423C44.4027 212.745 75.1561 206.562 73.1897 188.459C70.0434 159.494 0.245104 168.213 0.000530971 139.079C-0.150437 121.095 31.9319 120.55 44.66 107.844C54.554 97.9669 60.6249 84.3636 69.0006 73.1702C77.9648 61.1902 83.9342 44.5255 97.2531 37.7078C110.795 30.7756 129.277 29.5914 143.301 35.4891C162.072 43.3831 164 83.3559 184.289 81.6168C215.7 78.9244 204.008 -6.89678 234.667 0.445417C262.932 7.21412 216.731 74.1516 242.176 88.1967C270.671 103.925 298.632 33.5924 329.809 42.939C346.647 47.9869 357.229 71.8608 355.885 89.3878C353.731 117.478 303.057 128.416 303.232 156.588C303.316 170.081 332.637 175.508 328.849 188.459C322.586 209.872 270.644 188.501 264.775 210.025Z" fill="#4DFF88"/>
</svg>
