<svg width="310" height="302" viewBox="0 0 310 302" fill="none" xmlns="http://www.w3.org/2000/svg">
<path d="M250.651 173.76C266.343 192.105 316.882 194.71 309.213 217.601C303.464 234.762 271.471 211.46 254.37 217.387C247.662 219.712 242.156 225.389 237.522 230.768C232.489 236.609 231.048 245.312 225.856 251.011C220.702 256.667 211.847 258.544 206.927 264.404C198.148 274.86 202.867 301.008 189.238 301.803C172.205 302.797 177.735 264.171 161.846 257.953C154.611 255.121 146.896 264.469 139.133 264.15C131.714 263.845 125.374 255.735 117.985 256.466C97.4459 258.499 80.9027 301.499 64.5283 288.934C48.3661 276.533 73.7638 248.382 81.8283 229.674C87.6258 216.226 112.283 203.636 104.262 191.383C90.1215 169.781 40.9532 222.065 26.5708 200.623C19.932 190.726 46.9226 180.646 44.1229 169.061C40.0097 152.043 0.54479 157.087 0.00630839 139.587C-0.413893 125.93 20.2552 119.557 32.9532 114.513C48.0429 108.52 74.8323 123.955 81.8799 109.328C91.5591 89.2397 31.4775 69.6144 45.5752 52.3375C58.4986 36.4995 84.76 66.1457 103.434 74.4615C113.955 79.1468 124.902 96.7052 134.508 90.3512C156.999 75.474 103.811 19.1254 128.738 8.83744C143.992 2.54206 144.957 47.8816 161.416 46.688C179.479 45.378 173.625 -4.99793 190.911 0.40537C223.126 10.4749 159.356 83.2044 186.973 102.607C192.289 106.342 199.255 92.6574 205.224 95.2238C210.091 97.3168 206.319 107.87 211.093 110.169C223.695 116.237 241.526 87.9707 251.596 97.6783C257.875 103.732 245.3 114.499 244.737 123.202C244.374 128.824 247.534 134.514 247.007 140.123C246.472 145.816 241.069 150.869 241.544 156.567C242.078 162.965 246.477 168.881 250.651 173.76Z" fill="#4C6AFF"/>
</svg>
